<svg width="33" height="33" viewBox="0 0 33 33" fill="none" xmlns="http://www.w3.org/2000/svg">
<path fill-rule="evenodd" clip-rule="evenodd" d="M9.8865 0.554502C11.5971 0.475752 12.1425 0.458252 16.5 0.458252C20.8575 0.458252 21.403 0.47721 23.1121 0.554502C24.8213 0.631794 25.988 0.904502 27.0088 1.29971C28.0777 1.70367 29.0475 2.33513 29.8496 3.15179C30.6663 3.95242 31.2963 4.92075 31.6988 5.99117C32.0955 7.012 32.3667 8.17867 32.4455 9.88492C32.5242 11.5985 32.5417 12.1439 32.5417 16.4999C32.5417 20.8574 32.5227 21.4028 32.4455 23.1135C32.3682 24.8197 32.0955 25.9864 31.6988 27.0072C31.2963 28.0778 30.6652 29.0477 29.8496 29.8495C29.0475 30.6662 28.0777 31.2962 27.0088 31.6987C25.988 32.0953 24.8213 32.3666 23.115 32.4453C21.403 32.5241 20.8575 32.5416 16.5 32.5416C12.1425 32.5416 11.5971 32.5226 9.8865 32.4453C8.18025 32.368 7.01358 32.0953 5.99275 31.6987C4.92222 31.2961 3.95228 30.6651 3.15046 29.8495C2.33434 29.0484 1.70279 28.0789 1.29983 27.0087C0.904624 25.9878 0.633374 24.8212 0.554624 23.1149C0.475874 21.4014 0.458374 20.856 0.458374 16.4999C0.458374 12.1424 0.477332 11.597 0.554624 9.88783C0.631916 8.17867 0.904624 7.012 1.29983 5.99117C1.70339 4.92087 2.33542 3.95142 3.15192 3.15034C3.9526 2.3344 4.92156 1.70286 5.99129 1.29971C7.01212 0.904502 8.17879 0.633252 9.88504 0.554502H9.8865ZM22.9823 3.442C21.2907 3.36471 20.7832 3.34867 16.5 3.34867C12.2169 3.34867 11.7094 3.36471 10.0177 3.442C8.45296 3.51346 7.60421 3.7745 7.03837 3.99471C6.29025 4.28638 5.75504 4.632 5.19358 5.19346C4.66136 5.71124 4.25176 6.34158 3.99483 7.03825C3.77462 7.60408 3.51358 8.45283 3.44212 10.0176C3.36483 11.7093 3.34879 12.2168 3.34879 16.4999C3.34879 20.783 3.36483 21.2905 3.44212 22.9822C3.51358 24.547 3.77462 25.3958 3.99483 25.9616C4.2515 26.6572 4.66129 27.2887 5.19358 27.8064C5.71129 28.3387 6.34275 28.7485 7.03837 29.0051C7.60421 29.2253 8.45296 29.4864 10.0177 29.5578C11.7094 29.6351 12.2155 29.6512 16.5 29.6512C20.7846 29.6512 21.2907 29.6351 22.9823 29.5578C24.5471 29.4864 25.3959 29.2253 25.9617 29.0051C26.7098 28.7135 27.245 28.3678 27.8065 27.8064C28.3388 27.2887 28.7486 26.6572 29.0052 25.9616C29.2255 25.3958 29.4865 24.547 29.558 22.9822C29.6352 21.2905 29.6513 20.783 29.6513 16.4999C29.6513 12.2168 29.6352 11.7093 29.558 10.0176C29.4865 8.45283 29.2255 7.60408 29.0052 7.03825C28.7136 6.29013 28.368 5.75492 27.8065 5.19346C27.2887 4.66127 26.6584 4.25168 25.9617 3.99471C25.3959 3.7745 24.5471 3.51346 22.9823 3.442ZM14.4511 21.4451C15.5954 21.9215 16.8696 21.9858 18.056 21.627C19.2424 21.2683 20.2675 20.5088 20.9561 19.4782C21.6448 18.4476 21.9543 17.2099 21.8318 15.9765C21.7093 14.7431 21.1623 13.5905 20.2844 12.7155C19.7248 12.1562 19.0481 11.728 18.303 11.4616C17.558 11.1952 16.7632 11.0973 15.9758 11.175C15.1884 11.2526 14.428 11.5039 13.7493 11.9107C13.0707 12.3175 12.4907 12.8698 12.0511 13.5276C11.6115 14.1855 11.3232 14.9326 11.207 15.7153C11.0909 16.4979 11.1496 17.2966 11.3792 18.0538C11.6087 18.811 12.0032 19.5079 12.5344 20.0943C13.0656 20.6807 13.7202 21.1421 14.4511 21.4451ZM10.6696 10.6695C11.4353 9.90384 12.3443 9.29648 13.3446 8.88211C14.345 8.46774 15.4172 8.25446 16.5 8.25446C17.5828 8.25446 18.6551 8.46774 19.6554 8.88211C20.6558 9.29648 21.5648 9.90384 22.3305 10.6695C23.0961 11.4352 23.7035 12.3441 24.1178 13.3445C24.5322 14.3449 24.7455 15.4171 24.7455 16.4999C24.7455 17.5827 24.5322 18.6549 24.1178 19.6553C23.7035 20.6557 23.0961 21.5647 22.3305 22.3303C20.7841 23.8767 18.6869 24.7454 16.5 24.7454C14.3132 24.7454 12.2159 23.8767 10.6696 22.3303C9.1233 20.784 8.25459 18.6867 8.25459 16.4999C8.25459 14.3131 9.1233 12.2158 10.6696 10.6695ZM26.5742 9.48242C26.7639 9.30344 26.9158 9.0882 27.0209 8.84946C27.126 8.61072 27.1821 8.35333 27.1859 8.09252C27.1897 7.83172 27.1411 7.5728 27.043 7.3311C26.945 7.0894 26.7994 6.86983 26.615 6.68539C26.4305 6.50095 26.211 6.3554 25.9693 6.25734C25.7276 6.15928 25.4687 6.11072 25.2078 6.11452C24.947 6.11832 24.6896 6.17441 24.4509 6.27948C24.2122 6.38454 23.9969 6.53643 23.818 6.72617C23.4699 7.09517 23.2793 7.5853 23.2867 8.09252C23.2941 8.59975 23.4989 9.08412 23.8576 9.44281C24.2163 9.80151 24.7006 10.0063 25.2078 10.0137C25.7151 10.0211 26.2052 9.83051 26.5742 9.48242Z" fill="white"/>
</svg>
